<svg width="13" height="14" viewBox="0 0 13 14" fill="none" xmlns="http://www.w3.org/2000/svg">
<path fill-rule="evenodd" clip-rule="evenodd" d="M7.59248 8.41379C6.16056 9.84571 3.83895 9.84571 2.40703 8.41379C0.975109 6.98187 0.975109 4.66027 2.40703 3.22834C3.83895 1.79642 6.16056 1.79642 7.59248 3.22834C9.0244 4.66027 9.0244 6.98187 7.59248 8.41379ZM8.03286 9.79675C6.07264 11.2961 3.25705 11.1494 1.46422 9.3566C-0.488399 7.40398 -0.488399 4.23816 1.46422 2.28553C3.41684 0.332912 6.58267 0.332912 8.53529 2.28553C10.328 4.07828 10.4748 6.8937 8.97564 8.85391L12.5423 12.4206L11.5995 13.3634L8.03286 9.79675Z" fill="currentColor"/>
</svg>
